# xmcd
#
# Track frame offsets:
#	150
#	13188
#	23342
#	34738
#	47542
#	57764
#	70338
#	82443
#	94657
#	106971
#	118489
#	129656
#	142838
#	154167
#	167597
#	180211
#	190687
#	201285
#	213698
#	225588
#	235509
#	248267
#	262409
#	274184
#	286352
#
# Disc length: 3950 seconds
#
# Revision: 3
# Processed by: cddbd v1.5.2PL0 Copyright (c) Steve Scherf et al.
# Submitted via: audiograbber 1.83.01
#
DISCID=5e0f6c19
DTITLE=Various Artist - Trains and Cars:  A Trip to Rock 'n' Roll, Blues and Hillb
DTITLE=illy [CD 3)
DYEAR=2005
DGENRE=Rock
TTITLE0=Kenny Roberts - Choo Choo Ch'  Boogie
TTITLE1=Bill Haley and The Comets - Chattanooga Choo Choo
TTITLE2=Johnny Tyler - Freight Train Boogie
TTITLE3=Hank Snow - I' m movin' on
TTITLE4=The Miller Brothers - Local Choo Choo
TTITLE5=Joe Lewis - Railroad Engineer
TTITLE6=The York Brothers - Gravy Train
TTITLE7=Lonnie Glosson - Pan American Boogie
TTITLE8=Homer Zeke Clemmons - Dallas Limited
TTITLE9=Spade Cooley - All aboard for Oklahoma
TTITLE10=Lanie Walker - Side Track Daddy
TTITLE11=Red Foley - Night Train to Memphis
TTITLE12=Carroll Free - The Wreck of old No. 9
TTITLE13=Tennessee Ernie Ford - Streamlined Cannonball
TTITLE14=Jimmie O'Neal - Streamliner Boogie
TTITLE15=Bill Haley - Jukebox Cannonball
TTITLE16=Bob Newman - Chic-A-Choo Freight
TTITLE17=Red Foley - Freight Train Boogie
TTITLE18=Jimmie Dale - Tennessee Ghost Train
TTITLE19=Cousin Joe Maphis - Lonesome Train Boogie
TTITLE20=Hank Penny - Lonesome Train Blues
TTITLE21=Bob Wills - Take The "A" Train
TTITLE22=Billy Strange - Hell Train
TTITLE23=Joe Lewis - Train whistle Nightmare
TTITLE24=Johnny Cash - Hey Porter
EXTD=
EXTT0=
EXTT1=
EXTT2=
EXTT3=
EXTT4=
EXTT5=
EXTT6=
EXTT7=
EXTT8=
EXTT9=
EXTT10=
EXTT11=
EXTT12=
EXTT13=
EXTT14=
EXTT15=
EXTT16=
EXTT17=
EXTT18=
EXTT19=
EXTT20=
EXTT21=
EXTT22=
EXTT23=
EXTT24=
PLAYORDER=
